<svg fill="none" xmlns="http://www.w3.org/2000/svg">
  <symbol id="logo-mark" viewBox="0 0 80 80">
    <path fill="currentColor" d="M63.22,9.53H16.78a7.26,7.26,0,0,0-7.25,7.25V63.22a7.26,7.26,0,0,0,7.25,7.25H63.22a7.26,7.26,0,0,0,7.25-7.25V16.78A7.26,7.26,0,0,0,63.22,9.53ZM35.78,53.42a2.41,2.41,0,0,1-2.41,2.41H23.19a2.41,2.41,0,0,1-2.41-2.41V23.19a2.41,2.41,0,0,1,2.41-2.41H33.37a2.41,2.41,0,0,1,2.41,2.41ZM59.22,39.54A2.41,2.41,0,0,1,56.81,42H46.63a2.41,2.41,0,0,1-2.41-2.41V23.19a2.41,2.41,0,0,1,2.41-2.41H56.81a2.41,2.41,0,0,1,2.41,2.41Z" />
  </symbol>
</svg>
